<?xml version="1.0" encoding="UTF-8" standalone="no"?>
<!-- Created with Inkscape (http://www.inkscape.org/) -->

<svg
   width="210mm"
   height="297mm"
   viewBox="0 0 210 297"
   version="1.1"
   id="svg5"
   xml:space="preserve"
   inkscape:version="1.2.2 (732a01da63, 2022-12-09)"
   sodipodi:docname="logo.svg"
   xmlns:inkscape="http://www.inkscape.org/namespaces/inkscape"
   xmlns:sodipodi="http://sodipodi.sourceforge.net/DTD/sodipodi-0.dtd"
   xmlns="http://www.w3.org/2000/svg"
   xmlns:svg="http://www.w3.org/2000/svg"><sodipodi:namedview
     id="namedview7"
     pagecolor="#ffffff"
     bordercolor="#000000"
     borderopacity="0.25"
     inkscape:showpageshadow="2"
     inkscape:pageopacity="0.0"
     inkscape:pagecheckerboard="0"
     inkscape:deskcolor="#d1d1d1"
     inkscape:document-units="mm"
     showgrid="false"
     inkscape:zoom="0.78127806"
     inkscape:cx="655.33646"
     inkscape:cy="536.30074"
     inkscape:window-width="1920"
     inkscape:window-height="1057"
     inkscape:window-x="-8"
     inkscape:window-y="-8"
     inkscape:window-maximized="1"
     inkscape:current-layer="layer1" /><defs
     id="defs2" /><g
     inkscape:label="Camada 1"
     inkscape:groupmode="layer"
     id="layer1"><text
       xml:space="preserve"
       style="font-size:3.175px;fill:#deb841;fill-opacity:1;stroke-width:0.264999;stroke-dasharray:none"
       x="30.172579"
       y="144.15787"
       id="text4013"><tspan
         sodipodi:role="line"
         id="tspan4011"
         style="stroke-width:0.265"
         x="30.172579"
         y="144.15787" /></text><path
       id="rect4137"
       style="fill:#deb841;fill-opacity:1;stroke-width:0.264999;stroke-dasharray:none"
       d="m 34.313007,60.970372 8.527128,55.952138 38.170797,7.20318 0.01757,0.11524 58.177328,10.97865 -8.57725,-55.961952 -38.170802,-7.203178 -0.01757,-0.115239 z" /><path
       style="fill:#000080;fill-opacity:1;stroke-width:0.264999;stroke-dasharray:none"
       d="M 34.492914,61.04532 C 36.887562,49.311542 53.171177,50.029936 53.171177,50.029936 l 2.155182,14.846824"
       id="path4321" /><path
       id="rect4375"
       style="fill:#000080;fill-opacity:1;stroke-width:0.415183;stroke-dasharray:none"
       d="m 137.58991,86.017939 -34.61339,22.322671 0.008,0.0548 -31.816149,20.51865 10.077422,71.45248 34.868157,-22.487 -0.008,-0.0548 31.81615,-20.51864 -10.01438,-70.752267 z" /><path
       style="fill:#deb841;fill-opacity:1;stroke:none;stroke-width:0.267481;stroke-dasharray:none;stroke-opacity:1"
       d="m 130.51834,79.244652 c 6.45784,2.559239 7.06421,6.774452 7.06421,6.774452 l -5.42701,3.492605"
       id="path4581" /></g><g
     inkscape:groupmode="layer"
     id="layer2"
     inkscape:label="Camada 2"><path
       id="rect4137-7"
       style="fill:#deb841;fill-opacity:1;stroke-width:0.305533;stroke-dasharray:none"
       d="m 65.140823,143.17423 8.488194,74.71936 37.996513,9.61924 0.0175,0.1539 57.91168,14.66106 -8.53807,-74.73249 -37.99651,-9.61922 -0.0176,-0.15389 z" /><path
       style="fill:#000080;fill-opacity:1;stroke:none;stroke-width:0.264999;stroke-dasharray:none;stroke-opacity:1"
       d="m 71.180964,128.94272 c -5.735963,3.30188 -5.989953,14.24466 -5.989953,14.24466 l 8.339368,2.11659"
       id="path6571" /></g></svg>
